<?xml version="1.0" encoding="iso-8859-1"?>
<!-- Uploaded to: SVG Repo, www.svgrepo.com, Generator: SVG Repo Mixer Tools -->
<svg version="1.1" id="Layer_1" xmlns="http://www.w3.org/2000/svg" xmlns:xlink="http://www.w3.org/1999/xlink" 
	 viewBox="0 0 512 512" xml:space="preserve">
<polyline style="fill:#CEBBA3;" points="194.958,450.875 403.069,450.875 256.233,219.185 243.422,198.964 194.958,122.494 
	194.958,198.964 "/>
<polyline style="fill:#EADAC5;" points="194.958,122.493 295.487,122.493 503.602,450.876 403.073,450.876 "/>
<path style="fill:#C0EFFF;" d="M256.233,198.964H71.271v188.372c0,18.798,15.239,34.036,34.036,34.036h116.89
	c18.798,0,34.036-15.239,34.036-34.036V198.964z"/>
<path style="fill:#9FD0DD;" d="M110.46,387.336V198.964H71.271v188.372c0,18.798,15.239,34.036,34.036,34.036h39.188
	C125.699,421.373,110.46,406.134,110.46,387.336z"/>
<rect x="103.289" y="421.018" style="fill:#C0EFFF;" width="120.924" height="29.863"/>
<rect x="103.289" y="421.018" style="fill:#9FD0DD;" width="36.109" height="29.863"/>
<polygon style="fill:#FC583D;" points="231.041,122.493 258.596,122.493 466.711,450.876 439.157,450.876 "/>
<path d="M510.696,446.38L336.374,171.322c-2.482-3.917-7.671-5.081-11.589-2.598c-3.918,2.482-5.081,7.671-2.598,11.589
	l166.15,262.166H471.33l-96.704-152.587c-2.483-3.917-7.672-5.081-11.589-2.598c-3.918,2.482-5.081,7.671-2.598,11.589
	l91.006,143.596h-7.671L246.305,130.89h7.671l91.798,144.848c2.482,3.917,7.67,5.081,11.589,2.598
	c3.918-2.482,5.081-7.671,2.598-11.589l-86.1-135.857h17.008l17.16,27.078c1.599,2.523,4.32,3.903,7.101,3.903
	c1.537,0,3.092-0.422,4.486-1.306c3.918-2.482,5.081-7.671,2.598-11.589l-19.633-30.98c-1.54-2.43-4.217-3.902-7.093-3.902H194.956
	c-0.097,0-0.19,0.018-0.284,0.032c-0.685,0.024-1.375,0.103-2.057,0.301c-3.589,1.041-6.057,4.329-6.057,8.065v49.672
	c0,4.638,3.76,8.398,8.398,8.398s8.398-3.76,8.398-8.398v-20.735l24.803,39.136H71.271c-4.638,0-8.398,3.76-8.398,8.398v14.858
	c-6.51-4.633-14.458-7.37-23.039-7.37C17.87,206.452,0,224.322,0,246.288v66.097c0,17.32,11.127,32.366,27.687,37.441l13.205,4.047
	c5.36,1.643,9.335,5.877,10.635,11.33c1.299,5.452-0.338,11.025-4.381,14.907l-7.12,6.838c-3.344,3.212-3.452,8.529-0.24,11.873
	c1.649,1.716,3.852,2.581,6.057,2.581c2.093,0,4.188-0.777,5.816-2.341l7.12-6.838c1.536-1.476,2.902-3.071,4.097-4.76
	c0.058,19.749,13.676,36.365,32.014,41.01v22.403c0,4.638,3.76,8.398,8.398,8.398h400.314c3.062,0,5.882-1.667,7.357-4.35
	C512.436,452.241,512.335,448.967,510.696,446.38z M210.221,130.89h16.2l197.472,311.587h-16.204l-143.058-225.73v-17.784
	c0-4.638-3.76-8.398-8.398-8.398h-8.191L210.221,130.89z M45.813,337.814l-13.205-4.047c-9.459-2.898-15.813-11.491-15.813-21.383
	v-66.097c0-12.704,10.336-23.039,23.039-23.039s23.039,10.336,23.039,23.039v19.627v84.247
	C58.815,344.353,52.903,339.985,45.813,337.814z M194.958,442.478h-83.272V429.77h104.133v12.708H194.958z M232.613,442.478v-14.006
	c18.378-4.656,32.017-21.332,32.017-41.137v-41.62c0-4.638-3.76-8.397-8.398-8.397s-8.398,3.76-8.398,8.397v41.62
	c0,12.978-9.695,23.728-22.223,25.404c-0.455-0.076-123.265-0.076-123.721,0c-12.528-1.676-22.223-12.426-22.223-25.404V207.361
	h168.168v113.16c0,4.638,3.76,8.398,8.398,8.398c4.638,0,8.397-3.76,8.397-8.398v-72.4l123.174,194.354H232.613V442.478z"/>
<path d="M147.962,136.141c0,11.693,3.762,17.993,6.786,23.057c2.561,4.288,4.41,7.388,4.41,14.447c0,4.638,3.76,8.398,8.398,8.398
	s8.398-3.76,8.398-8.398c0-11.693-3.762-17.993-6.786-23.057c-2.561-4.288-4.41-7.388-4.41-14.447c0-7.061,1.85-10.16,4.41-14.45
	c3.023-5.063,6.786-11.366,6.786-23.058s-3.762-17.995-6.786-23.058c-2.561-4.289-4.41-7.389-4.41-14.45
	c0-4.638-3.76-8.398-8.398-8.398s-8.398,3.76-8.398,8.398c0,11.694,3.762,17.995,6.786,23.058c2.561,4.289,4.41,7.389,4.41,14.449
	s-1.85,10.16-4.41,14.45C151.725,118.146,147.962,124.448,147.962,136.141z"/>
</svg>