<?xml version="1.0" encoding="iso-8859-1"?>
<!-- Uploaded to: SVG Repo, www.svgrepo.com, Generator: SVG Repo Mixer Tools -->
<svg height="800px" width="800px" version="1.1" id="Layer_1" xmlns="http://www.w3.org/2000/svg" xmlns:xlink="http://www.w3.org/1999/xlink" 
	 viewBox="0 0 512 512" xml:space="preserve">
<path style="fill:#2C6991;" d="M295.468,512c-9.342,0-16.915-7.573-16.915-16.915V212.042c0-9.342,7.573-16.915,16.915-16.915
	c9.342,0,16.915,7.573,16.915,16.915v283.043C312.383,504.428,304.81,512,295.468,512z"/>
<path style="fill:#528FB3;" d="M295.468,512c-9.021,0-16.915-7.573-16.915-16.915V212.042c0-9.342,7.894-16.915,16.915-16.915V512z"
	/>
<path style="fill:#2C6991;" d="M97,512c-9.342,0-16.915-7.573-16.915-16.915V212.042c0-9.342,7.573-16.915,16.915-16.915
	s16.915,7.573,16.915,16.915v283.043C113.915,504.428,106.341,512,97,512z"/>
<path style="fill:#528FB3;" d="M97,512c-9.342,0-16.915-7.573-16.915-16.915V212.042c0-9.342,7.573-16.915,16.915-16.915V512z"/>
<path style="fill:#2C6991;" d="M426.277,512c-9.342,0-16.915-7.573-16.915-16.915V316.915h33.83v178.171
	C443.192,504.428,435.618,512,426.277,512z"/>
<path style="fill:#528FB3;" d="M426.277,512c-9.342,0-16.915-7.573-16.915-16.915V316.915h16.915V512z"/>
<path style="fill:#4AD0FF;" d="M460.279,12.294c-9.158-8.063-21.763-9.95-32.883-4.926c-11.119,5.025-18.035,15.726-18.035,27.929
	v293.247h33.83v-4.896l49.835-32.685c4.763-3.127,7.676-8.442,7.676-14.141V101.58C500.703,67.414,485.923,34.871,460.279,12.294z"
	/>
<path style="fill:#99E5FF;" d="M443.176,4.747c-5.254-0.536-10.673,0.313-15.779,2.621c-11.119,5.025-18.035,15.726-18.035,27.929
	v293.247h33.83V4.749L443.176,4.747z"/>
<path style="fill:#FB5858;" d="M97.564,4.622c-49.271,0-86.266,51.233-86.266,97.041v40.892c0,47.469,38.797,86.087,86.266,86.087
	s86.266-38.619,86.266-86.087v-40.892C183.83,55.854,146.835,4.622,97.564,4.622z"/>
<path style="fill:#FF835D;" d="M97,4.622c-48.489,0-85.702,51.233-85.702,97.041v40.892c0,47.469,38.34,86.087,85.702,86.087V4.622z
	"/>
<g>
	<path style="fill:#16A5D9;" d="M277.426,204.148V16.957c0-9.342,7.573-16.915,16.915-16.915c9.342,0,16.915,7.573,16.915,16.915
		v187.192H277.426z"/>
	<path style="fill:#16A5D9;" d="M353.2,0c-9.342,0-17.025,7.935-17.025,16.957h-0.111v146.084c0,11.336-8.779,20.81-20.115,20.81
		h-41.817c-11.336,0-20.387-9.472-20.387-20.81V16.957h-0.087C253.658,7.935,246.128,0,236.786,0
		c-9.343,0-16.872,7.531-16.872,16.873v146.169c0,29.99,24.226,54.64,54.217,54.64h41.817c29.99,0,53.945-24.648,53.945-54.64
		V16.873C369.894,7.531,362.543,0,353.2,0z"/>
</g>
<path style="fill:#4AD0FF;" d="M277.426,16.957v166.894h-3.294c-11.336,0-20.387-9.472-20.387-20.81V16.957h-0.087
	C253.658,7.935,246.128,0,236.786,0c-9.343,0-16.872,7.531-16.872,16.873v146.169c0,29.99,24.226,54.64,54.217,54.64h20.209v-14.096
	v-19.734V0.043C285.319,0.042,277.426,7.615,277.426,16.957z"/>
</svg>